REM MD5 88ad03866ce605983c9b6e8ec851b81b
FILE "Dengeki PlayStation D13 (Japan).bin" BINARY
  TRACK 01 MODE2/2352
    INDEX 01 00:00:00
  TRACK 02 AUDIO
    INDEX 00 60:53:40
    INDEX 01 60:55:40
  TRACK 03 AUDIO
    INDEX 00 64:50:06
    INDEX 01 64:52:06
  TRACK 04 AUDIO
    INDEX 00 66:10:08
    INDEX 01 66:12:08
REM LEADOUT 69:42:08
